<?xml version="1.0" encoding="utf-8"?>
<!-- Generator: Adobe Illustrator 27.1.1, SVG Export Plug-In . SVG Version: 6.00 Build 0)  -->
<svg version="1.1" id="Layer_1" xmlns="http://www.w3.org/2000/svg" xmlns:xlink="http://www.w3.org/1999/xlink" x="0px" y="0px"
	 viewBox="0 0 100 100" style="enable-background:new 0 0 100 100;" xml:space="preserve">
<style type="text/css">
	.st0{stroke:#C82127;stroke-width:4.224;stroke-miterlimit:10;}
	.st1{fill:none;stroke:#C82127;stroke-width:4.224;stroke-miterlimit:10;}
</style>
<path class="st0" d="M95.8,18.5c0-8.9-20.4-16.2-45.6-16.2S4.6,9.6,4.6,18.5v61.2C4.6,88.7,25,98,50.2,98s45.6-9.4,45.6-18.3
	L95.8,18.5L95.8,18.5z"/>
<path class="st0" d="M95.8,18.5c0,8.9-20.4,16.2-45.6,16.2S4.6,27.4,4.6,18.5"/>
<path class="st1" d="M95.8,39.6c0,8.9-20.4,16.2-45.6,16.2S4.6,48.6,4.6,39.6"/>
<path class="st1" d="M95.8,59.7c0,8.9-20.4,17.2-45.6,17.2S4.6,68.6,4.6,59.7"/>
</svg>
