<?xml version="1.0" encoding="utf-8"?>
<!-- Generator: Adobe Illustrator 27.1.1, SVG Export Plug-In . SVG Version: 6.00 Build 0)  -->
<svg version="1.1" id="Layer_1" xmlns="http://www.w3.org/2000/svg" xmlns:xlink="http://www.w3.org/1999/xlink" x="0px" y="0px"
	 viewBox="0 0 100 100" style="enable-background:new 0 0 100 100;" xml:space="preserve">
<style type="text/css">
	.st0{fill:#C81919;}
</style>
<path class="st0" d="M25,25C25,11.2,36.2,0,50,0c13.8,0,25,11.2,25,25S63.8,50,50,50C36.2,50,25,38.8,25,25"/>
<path class="st0" d="M50,56.6c10.8,0,14.4-5.3,17.7-5.3c14.2,0,33.6,29.6,30.5,38.5C95.1,98.7,63.7,100,50,100
	c-13.7,0-45.1-1.3-48.2-10.2c-3.1-8.9,16.2-38.5,30.5-38.5C35.6,51.3,39.2,56.6,50,56.6"/>
</svg>
